PathFileType	4	(X/Y/Z)	SUBJ89_0_static_RCNL2025.trc
DataRate	CameraRate	NumFrames	NumMarkers	Units	OrigDataRate	OrigDataStartFrame	OrigNumFrames
100	100	7	25	mm	100	101	267
Frame#	Time	R_Shoulder			L_Shoulder			C7			J_Notch			R_Elbow			L_Elbow			R_Wrist			L_Wrist			R_Asis			L_Asis			Sacral			Thoracic			Sternum			R_Thigh_Lateral			R_Knee_Lateral			R_Shank_Lateral			R_Ankle_Lateral			R_Heel			R_Toe			L_Thigh_Lateral			L_Knee_Lateral			L_Shank_Lateral			L_Ankle_Lateral			L_Heel			L_Toe		
		X1	Y1	Z1	X2	Y2	Z2	X3	Y3	Z3	X4	Y4	Z4	X5	Y5	Z5	X6	Y6	Z6	X7	Y7	Z7	X8	Y8	Z8	X9	Y9	Z9	X10	Y10	Z10	X11	Y11	Z11	X12	Y12	Z12	X13	Y13	Z13	X14	Y14	Z14	X15	Y15	Z15	X16	Y16	Z16	X17	Y17	Z17	X18	Y18	Z18	X19	Y19	Z19	X20	Y20	Z20	X21	Y21	Z21	X22	Y22	Z22	X23	Y23	Z23	X24	Y24	Z24	X25	Y25	Z25
101	1.00000000	-228.308334	1450.930786	-41.126137	-251.139694	1451.914307	-430.062347	-293.925476	1515.296875	-242.124710	-162.553970	1401.849731	-236.030273	-249.748825	1182.341553	127.651093	-219.423340	1187.005981	-605.230347	-162.107498	952.341125	239.688667	-112.810101	977.395477	-731.352661	-147.676529	1002.252014	-108.454903	-139.302002	1007.203064	-349.667480	-314.938843	1050.322388	-221.400696	-360.920563	1333.608887	-229.198105	-122.404442	1255.074463	-244.951660	-210.119278	619.438721	-36.622356	-228.178711	501.255035	-89.134827	-281.840637	283.969513	-31.631325	-317.018799	74.845139	-95.861496	-352.221130	64.361931	-141.781357	-157.029861	35.912247	-101.063759	-191.357834	578.140625	-445.878601	-205.432983	492.661163	-373.130157	-264.682800	267.017609	-427.943207	-287.995911	67.572060	-365.931610	-325.060791	72.714264	-317.278107	-131.352936	35.534367	-360.078979
102	1.01000000	-228.270050	1450.993286	-41.163006	-251.134171	1451.929688	-430.065002	-294.010437	1515.281738	-242.246582	-162.504715	1401.940552	-236.038116	-249.557175	1182.493530	127.633118	-219.416000	1186.956055	-605.115051	-161.983643	952.405487	239.611977	-112.858635	977.349579	-731.195587	-147.690781	1002.254456	-108.446114	-139.387711	1007.209839	-349.715668	-314.978912	1050.349609	-221.343414	-360.919586	1333.608276	-229.201431	-122.380531	1255.114014	-244.994431	-210.168640	619.387268	-36.603451	-228.274506	501.307007	-89.071968	-281.692596	283.874847	-31.767881	-317.030121	74.815903	-95.863708	-352.223755	64.341278	-141.780624	-157.041595	35.896950	-101.073730	-191.363525	578.120789	-445.846191	-205.422531	492.675751	-373.145844	-264.642365	266.976288	-427.973236	-288.002502	67.563370	-365.957489	-325.056488	72.733574	-317.281982	-131.285019	35.612293	-360.107452
103	1.02000000	-228.126556	1451.135620	-41.145813	-251.147919	1451.972656	-430.056610	-293.952332	1515.301147	-242.268570	-162.372696	1401.971924	-236.013763	-249.548157	1182.518921	127.656242	-219.464691	1186.917114	-604.979004	-161.965797	952.509521	239.613113	-112.835537	977.265076	-731.187561	-147.801071	1002.221985	-108.404175	-139.450562	1007.227600	-349.721527	-315.132904	1050.346069	-221.321213	-360.944366	1333.653809	-229.152252	-122.400726	1255.119385	-244.948318	-210.159714	619.386475	-36.611347	-228.347992	501.259949	-89.016502	-281.697418	283.858795	-31.718279	-317.052002	74.843140	-95.854668	-352.208008	64.334595	-141.790024	-157.112961	35.855247	-101.031174	-191.455399	578.115295	-445.896606	-205.522339	492.710510	-373.129242	-264.894623	266.974030	-428.016663	-287.952881	67.520294	-365.898499	-324.966339	72.683899	-317.378052	-131.411514	35.677299	-360.084473
104	1.03000000	-228.078583	1451.207520	-41.166618	-251.007843	1452.020752	-430.033630	-293.978241	1515.283447	-242.348755	-162.329849	1402.037842	-236.045837	-249.408691	1182.642822	127.678368	-219.359222	1186.840820	-605.199890	-161.863960	952.567169	239.627457	-112.893314	977.184204	-731.094147	-147.883499	1002.221558	-108.428581	-139.553116	1007.243408	-349.755524	-315.146759	1050.313477	-221.320618	-360.886932	1333.656250	-229.089020	-122.387878	1255.109253	-245.015869	-210.321838	619.431030	-36.469826	-228.341827	501.256775	-89.026749	-281.731598	283.865112	-31.743956	-317.054718	74.844688	-95.840050	-352.221741	64.339699	-141.781693	-157.113831	35.843643	-101.029564	-191.497986	578.157043	-445.834778	-205.552429	492.691254	-373.160950	-264.892273	266.936615	-428.033630	-288.026245	67.511017	-365.898254	-324.947479	72.627869	-317.349182	-131.357590	35.662403	-360.113892
105	1.04000000	-227.938721	1451.268311	-41.194126	-250.989288	1452.021851	-430.048737	-293.976288	1515.271729	-242.358276	-162.306198	1402.109985	-236.031494	-249.266861	1182.752808	127.690742	-219.352539	1186.831543	-605.214783	-161.788681	952.657501	239.648422	-112.936050	977.122437	-731.003845	-147.820374	1002.223083	-108.403664	-139.565643	1007.260254	-349.764893	-315.073761	1050.298584	-221.265808	-360.884277	1333.641724	-229.086304	-122.384315	1255.194702	-244.930130	-209.657623	619.148438	-36.998047	-228.348648	501.262848	-89.034851	-281.732849	283.832794	-31.713652	-317.046448	74.813110	-95.871086	-352.177216	64.319099	-141.686813	-157.120560	35.854786	-101.022980	-191.496933	578.145813	-445.842102	-205.531250	492.673309	-373.171783	-264.876190	266.916992	-428.023804	-288.032501	67.519524	-365.948975	-324.910370	72.624855	-317.450043	-131.315048	35.650455	-360.099609
106	1.05000000	-227.818405	1451.330933	-41.240715	-251.002853	1452.070801	-430.002411	-293.962341	1515.314087	-242.417404	-162.193359	1402.128418	-236.011292	-249.178116	1182.843628	127.745743	-219.372391	1186.854858	-605.077332	-161.765694	952.806458	239.706291	-113.100666	977.085297	-730.849731	-147.806778	1002.221741	-108.399963	-139.625809	1007.231201	-349.645233	-315.168701	1050.317383	-221.205505	-360.925568	1333.763672	-229.051773	-122.255165	1255.251465	-244.892746	-209.671280	619.158752	-36.948273	-228.350174	501.262268	-89.013596	-281.971252	283.790680	-31.663525	-316.991669	74.807159	-95.812767	-352.201477	64.268425	-141.651428	-157.110138	35.844830	-101.031349	-191.581146	578.138000	-445.777374	-205.612366	492.657135	-373.081909	-264.914917	266.952209	-427.993713	-288.051819	67.501732	-365.877594	-325.025818	72.683388	-317.277832	-131.320587	35.691616	-360.071533
107	1.06000000	-227.715256	1451.393799	-41.236397	-250.905731	1452.112305	-430.025757	-293.924133	1515.291626	-242.540619	-162.171967	1402.144531	-235.992661	-249.070282	1182.925293	127.793884	-219.356949	1186.883911	-605.088623	-161.723480	952.852234	239.719772	-113.125011	977.076691	-730.820129	-147.931458	1002.251465	-108.341019	-139.629776	1007.264587	-349.682678	-315.242004	1050.310181	-221.254425	-360.959717	1333.811279	-229.021301	-122.194504	1255.212280	-244.962158	-210.318787	619.409119	-36.434216	-228.350189	501.233429	-89.020988	-281.754181	283.846436	-31.701126	-317.044525	74.801392	-95.862808	-352.283325	64.331963	-141.743896	-157.122040	35.817081	-101.040649	-191.589478	578.137878	-445.771729	-205.615234	492.664093	-373.074463	-264.913849	266.938904	-427.970825	-288.043884	67.511932	-365.928070	-325.070251	72.698273	-317.270874	-131.360825	35.773651	-360.128998
